<svg width="24" height="24" viewBox="0 0 24 24" fill="none" xmlns="http://www.w3.org/2000/svg">
<mask id="path-1-inside-1_488_3735" fill="white">
<path d="M18.743 16.3723C18.743 16.8433 18.743 17.3123 18.743 17.7834C18.743 18.5239 18.743 19.2664 18.743 20.007C18.743 20.1962 18.7574 20.3916 18.7368 20.5809C18.745 20.5253 18.7512 20.4718 18.7594 20.4163C18.7471 20.4986 18.7265 20.5767 18.6977 20.6528C18.7183 20.6035 18.7388 20.5541 18.7594 20.5047C18.7388 20.5541 18.7142 20.6014 18.6854 20.6467C18.6134 20.7598 18.7183 20.6055 18.7203 20.6076C18.7224 20.6117 18.6648 20.6693 18.6586 20.6755C18.6401 20.694 18.6175 20.7104 18.599 20.729C18.5578 20.7722 18.743 20.6364 18.638 20.696C18.5866 20.7248 18.5393 20.7536 18.4838 20.7783C18.5331 20.7578 18.5825 20.7372 18.6319 20.7166C18.5558 20.7475 18.4755 20.768 18.3953 20.7783C18.4509 20.7701 18.5043 20.7639 18.5599 20.7557C18.4159 20.7722 18.2657 20.7619 18.1217 20.7619C17.8132 20.7619 17.5047 20.7619 17.1961 20.7619C16.1656 20.7619 15.133 20.7619 14.1024 20.7619C12.8579 20.7619 11.6135 20.7619 10.371 20.7619C9.29319 20.7619 8.21533 20.7619 7.13748 20.7619C6.62735 20.7619 6.11721 20.7639 5.60708 20.7619C5.56389 20.7619 5.52069 20.7598 5.47955 20.7557C5.53509 20.7639 5.58857 20.7701 5.64411 20.7783C5.56183 20.766 5.48367 20.7454 5.40756 20.7166C5.45692 20.7372 5.50629 20.7578 5.55566 20.7783C5.50629 20.7578 5.45898 20.7331 5.41373 20.7043C5.30059 20.6323 5.45487 20.7372 5.45281 20.7392C5.4487 20.7413 5.3911 20.6837 5.38493 20.6775C5.36642 20.659 5.34996 20.6364 5.33145 20.6179C5.28825 20.5767 5.42401 20.7619 5.36436 20.657C5.33556 20.6055 5.30677 20.5582 5.28208 20.5027C5.30265 20.5521 5.32322 20.6014 5.34379 20.6508C5.31294 20.5747 5.29237 20.4945 5.28208 20.4142C5.29031 20.4698 5.29648 20.5233 5.30471 20.5788C5.28825 20.4225 5.29854 20.2579 5.29854 20.1016C5.29854 19.7786 5.29854 19.4557 5.29854 19.1327C5.29854 18.384 5.29854 17.6353 5.29854 16.8845C5.29854 16.7117 5.29854 16.5389 5.29854 16.3661C4.94679 16.5122 4.59711 16.6561 4.24536 16.8022C4.58477 17.0778 4.95502 17.2876 5.38082 17.4069C5.78604 17.5221 6.20978 17.5448 6.62735 17.4892C7.38637 17.3864 8.10631 17.0058 8.58765 16.4052C8.29761 16.4052 8.00552 16.4052 7.71549 16.4052C8.13511 16.9277 8.76455 17.3144 9.42278 17.4481C10.1592 17.6003 10.9244 17.4954 11.5847 17.1334C11.9158 16.9523 12.2203 16.6993 12.4568 16.4052C12.1668 16.4052 11.8747 16.4052 11.5847 16.4052C12.0043 16.9277 12.6337 17.3144 13.292 17.4481C14.0284 17.6003 14.7936 17.4954 15.4538 17.1334C15.785 16.9523 16.0895 16.6993 16.326 16.4052C16.036 16.4052 15.7439 16.4052 15.4538 16.4052C15.9125 16.977 16.614 17.3761 17.338 17.4789C18.1649 17.5962 19.0145 17.4152 19.683 16.8989C19.8167 16.796 19.9195 16.6993 19.9669 16.5307C20.008 16.3826 19.9895 16.1871 19.9051 16.0555C19.8208 15.9239 19.6933 15.8087 19.5369 15.7716C19.3868 15.7367 19.1893 15.7346 19.0618 15.8333C18.8787 15.9753 18.6812 16.0905 18.4694 16.181C18.5187 16.1604 18.5681 16.1398 18.6175 16.1193C18.4221 16.1995 18.2184 16.255 18.0086 16.2859C18.0642 16.2777 18.1176 16.2715 18.1732 16.2633C17.951 16.2921 17.7268 16.2941 17.5047 16.2653C17.5602 16.2735 17.6137 16.2797 17.6692 16.2879C17.4491 16.2571 17.2352 16.1995 17.0295 16.1131C17.0789 16.1337 17.1282 16.1542 17.1776 16.1748C17.083 16.1337 16.9904 16.0884 16.8999 16.0349C16.8608 16.0123 16.8197 15.9876 16.7827 15.9609C16.7621 15.9465 16.7395 15.9321 16.7189 15.9177C16.6983 15.9033 16.6202 15.8436 16.7065 15.9115C16.795 15.9815 16.7107 15.9136 16.6963 15.9033C16.6798 15.8909 16.6654 15.8765 16.6489 15.8642C16.6099 15.8313 16.5728 15.7963 16.5358 15.7593C16.4618 15.6873 16.3939 15.6112 16.3301 15.531C16.2417 15.4199 16.0319 15.3438 15.894 15.35C15.7418 15.3561 15.5588 15.4055 15.458 15.531C15.3942 15.6112 15.3263 15.6873 15.2523 15.7593C15.2193 15.7922 15.1864 15.8231 15.1515 15.8539C15.133 15.8704 15.1124 15.8868 15.0939 15.9033C15.0754 15.9197 14.9972 15.9794 15.0836 15.9115C15.172 15.8416 15.0877 15.9074 15.0712 15.9177C15.0548 15.93 15.0383 15.9403 15.0198 15.9527C14.9766 15.9815 14.9334 16.0082 14.8882 16.0349C14.7997 16.0864 14.7051 16.1337 14.6105 16.1748C14.6599 16.1542 14.7092 16.1337 14.7586 16.1131C14.5529 16.1995 14.341 16.2571 14.1189 16.2879C14.1744 16.2797 14.2279 16.2735 14.2834 16.2653C14.0674 16.2921 13.8494 16.2921 13.6314 16.2653C13.6869 16.2735 13.7404 16.2797 13.7959 16.2879C13.5758 16.2571 13.3619 16.1995 13.1562 16.1131C13.2056 16.1337 13.2549 16.1542 13.3043 16.1748C13.2097 16.1337 13.1171 16.0884 13.0266 16.0349C12.9875 16.0123 12.9464 15.9876 12.9094 15.9609C12.8888 15.9465 12.8662 15.9321 12.8456 15.9177C12.825 15.9033 12.7469 15.8436 12.8333 15.9115C12.9217 15.9815 12.8374 15.9136 12.823 15.9033C12.8065 15.8909 12.7921 15.8765 12.7757 15.8642C12.7366 15.8313 12.6995 15.7963 12.6625 15.7593C12.5885 15.6873 12.5206 15.6112 12.4568 15.531C12.3684 15.4199 12.1586 15.3438 12.0207 15.35C11.8685 15.3561 11.6855 15.4055 11.5847 15.531C11.5209 15.6112 11.453 15.6873 11.379 15.7593C11.3461 15.7922 11.3131 15.8231 11.2782 15.8539C11.2597 15.8704 11.2391 15.8868 11.2206 15.9033C11.2021 15.9197 11.1239 15.9794 11.2103 15.9115C11.2987 15.8416 11.2144 15.9074 11.198 15.9177C11.1815 15.93 11.165 15.9403 11.1465 15.9527C11.1033 15.9815 11.0601 16.0082 11.0149 16.0349C10.9264 16.0864 10.8339 16.1337 10.7372 16.1748C10.7866 16.1542 10.8359 16.1337 10.8853 16.1131C10.6796 16.1995 10.4677 16.2571 10.2456 16.2879C10.3011 16.2797 10.3546 16.2735 10.4101 16.2653C10.1941 16.2921 9.97611 16.2921 9.75807 16.2653C9.81361 16.2735 9.86709 16.2797 9.92263 16.2879C9.70253 16.2571 9.4886 16.1995 9.28496 16.1131C9.33433 16.1337 9.3837 16.1542 9.43306 16.1748C9.33844 16.1337 9.24588 16.0884 9.15537 16.0349C9.11629 16.0123 9.07515 15.9876 9.03813 15.9609C9.01756 15.9465 8.99493 15.9321 8.97436 15.9177C8.95379 15.9033 8.87562 15.8436 8.96202 15.9115C9.05047 15.9815 8.96613 15.9136 8.95173 15.9033C8.93528 15.8909 8.92088 15.8765 8.90442 15.8642C8.86534 15.8313 8.82831 15.7963 8.79129 15.7593C8.71724 15.6873 8.64936 15.6112 8.58559 15.531C8.49714 15.4199 8.28733 15.3438 8.14951 15.35C7.99729 15.3561 7.81422 15.4055 7.71343 15.531C7.64966 15.6112 7.58178 15.6873 7.50773 15.7593C7.47482 15.7922 7.44191 15.8231 7.40694 15.8539C7.38843 15.8704 7.36786 15.8868 7.34935 15.9033C7.33083 15.9197 7.25267 15.9794 7.33906 15.9115C7.42751 15.8416 7.34317 15.9074 7.32672 15.9177C7.31026 15.93 7.29381 15.9403 7.27529 15.9527C7.2321 15.9815 7.1889 16.0082 7.1457 16.0349C7.05725 16.0864 6.96469 16.1337 6.87007 16.1748C6.91944 16.1542 6.9688 16.1337 7.01817 16.1131C6.81247 16.1995 6.60061 16.2571 6.38051 16.2879C6.43605 16.2797 6.48953 16.2735 6.54507 16.2653C6.32291 16.2941 6.0987 16.2921 5.87449 16.2633C5.93003 16.2715 5.98351 16.2777 6.03905 16.2859C5.82924 16.255 5.62354 16.1995 5.42813 16.1193C5.47749 16.1398 5.52686 16.1604 5.57623 16.181C5.47544 16.1378 5.37876 16.0905 5.28414 16.0349C5.243 16.0102 5.20186 15.9835 5.16072 15.9568C5.13809 15.9424 5.11752 15.9259 5.0949 15.9115C5.00439 15.8498 5.21009 16.002 5.11958 15.93C4.92005 15.7696 4.69379 15.6976 4.44489 15.8025C4.22068 15.8971 4.06641 16.1193 4.06641 16.3661C4.06641 17.1354 4.06641 17.9027 4.06641 18.672C4.06641 19.141 4.06641 19.612 4.06641 20.081C4.06641 20.5212 4.06435 20.9573 4.33998 21.3337C4.6403 21.743 5.08667 21.9899 5.60091 21.9981C5.62971 21.9981 5.66057 21.9981 5.68936 21.9981C5.87449 21.9981 6.05756 21.9981 6.24269 21.9981C6.99143 21.9981 7.74223 21.9981 8.49097 21.9981C9.53591 21.9981 10.5809 21.9981 11.6258 21.9981C12.7037 21.9981 13.7795 21.9981 14.8573 21.9981C15.7027 21.9981 16.5502 21.9981 17.3956 21.9981C17.7494 21.9981 18.1012 22.0022 18.455 21.9981C18.9754 21.9919 19.432 21.7348 19.7303 21.3131C19.9113 21.056 19.9874 20.7372 19.9874 20.4245C19.9874 20.0934 19.9874 19.7642 19.9874 19.4331C19.9874 18.4745 19.9874 17.518 19.9874 16.5595C19.9874 16.4957 19.9874 16.4319 19.9874 16.3682C19.9874 16.0452 19.7036 15.7367 19.3703 15.7511C19.0248 15.7716 18.743 16.0267 18.743 16.3723Z"/>
</mask>
<path d="M18.743 16.3723C18.743 16.8433 18.743 17.3123 18.743 17.7834C18.743 18.5239 18.743 19.2664 18.743 20.007C18.743 20.1962 18.7574 20.3916 18.7368 20.5809C18.745 20.5253 18.7512 20.4718 18.7594 20.4163C18.7471 20.4986 18.7265 20.5767 18.6977 20.6528C18.7183 20.6035 18.7388 20.5541 18.7594 20.5047C18.7388 20.5541 18.7142 20.6014 18.6854 20.6467C18.6134 20.7598 18.7183 20.6055 18.7203 20.6076C18.7224 20.6117 18.6648 20.6693 18.6586 20.6755C18.6401 20.694 18.6175 20.7104 18.599 20.729C18.5578 20.7722 18.743 20.6364 18.638 20.696C18.5866 20.7248 18.5393 20.7536 18.4838 20.7783C18.5331 20.7578 18.5825 20.7372 18.6319 20.7166C18.5558 20.7475 18.4755 20.768 18.3953 20.7783C18.4509 20.7701 18.5043 20.7639 18.5599 20.7557C18.4159 20.7722 18.2657 20.7619 18.1217 20.7619C17.8132 20.7619 17.5047 20.7619 17.1961 20.7619C16.1656 20.7619 15.133 20.7619 14.1024 20.7619C12.8579 20.7619 11.6135 20.7619 10.371 20.7619C9.29319 20.7619 8.21533 20.7619 7.13748 20.7619C6.62735 20.7619 6.11721 20.7639 5.60708 20.7619C5.56389 20.7619 5.52069 20.7598 5.47955 20.7557C5.53509 20.7639 5.58857 20.7701 5.64411 20.7783C5.56183 20.766 5.48367 20.7454 5.40756 20.7166C5.45692 20.7372 5.50629 20.7578 5.55566 20.7783C5.50629 20.7578 5.45898 20.7331 5.41373 20.7043C5.30059 20.6323 5.45487 20.7372 5.45281 20.7392C5.4487 20.7413 5.3911 20.6837 5.38493 20.6775C5.36642 20.659 5.34996 20.6364 5.33145 20.6179C5.28825 20.5767 5.42401 20.7619 5.36436 20.657C5.33556 20.6055 5.30677 20.5582 5.28208 20.5027C5.30265 20.5521 5.32322 20.6014 5.34379 20.6508C5.31294 20.5747 5.29237 20.4945 5.28208 20.4142C5.29031 20.4698 5.29648 20.5233 5.30471 20.5788C5.28825 20.4225 5.29854 20.2579 5.29854 20.1016C5.29854 19.7786 5.29854 19.4557 5.29854 19.1327C5.29854 18.384 5.29854 17.6353 5.29854 16.8845C5.29854 16.7117 5.29854 16.5389 5.29854 16.3661C4.94679 16.5122 4.59711 16.6561 4.24536 16.8022C4.58477 17.0778 4.95502 17.2876 5.38082 17.4069C5.78604 17.5221 6.20978 17.5448 6.62735 17.4892C7.38637 17.3864 8.10631 17.0058 8.58765 16.4052C8.29761 16.4052 8.00552 16.4052 7.71549 16.4052C8.13511 16.9277 8.76455 17.3144 9.42278 17.4481C10.1592 17.6003 10.9244 17.4954 11.5847 17.1334C11.9158 16.9523 12.2203 16.6993 12.4568 16.4052C12.1668 16.4052 11.8747 16.4052 11.5847 16.4052C12.0043 16.9277 12.6337 17.3144 13.292 17.4481C14.0284 17.6003 14.7936 17.4954 15.4538 17.1334C15.785 16.9523 16.0895 16.6993 16.326 16.4052C16.036 16.4052 15.7439 16.4052 15.4538 16.4052C15.9125 16.977 16.614 17.3761 17.338 17.4789C18.1649 17.5962 19.0145 17.4152 19.683 16.8989C19.8167 16.796 19.9195 16.6993 19.9669 16.5307C20.008 16.3826 19.9895 16.1871 19.9051 16.0555C19.8208 15.9239 19.6933 15.8087 19.5369 15.7716C19.3868 15.7367 19.1893 15.7346 19.0618 15.8333C18.8787 15.9753 18.6812 16.0905 18.4694 16.181C18.5187 16.1604 18.5681 16.1398 18.6175 16.1193C18.4221 16.1995 18.2184 16.255 18.0086 16.2859C18.0642 16.2777 18.1176 16.2715 18.1732 16.2633C17.951 16.2921 17.7268 16.2941 17.5047 16.2653C17.5602 16.2735 17.6137 16.2797 17.6692 16.2879C17.4491 16.2571 17.2352 16.1995 17.0295 16.1131C17.0789 16.1337 17.1282 16.1542 17.1776 16.1748C17.083 16.1337 16.9904 16.0884 16.8999 16.0349C16.8608 16.0123 16.8197 15.9876 16.7827 15.9609C16.7621 15.9465 16.7395 15.9321 16.7189 15.9177C16.6983 15.9033 16.6202 15.8436 16.7065 15.9115C16.795 15.9815 16.7107 15.9136 16.6963 15.9033C16.6798 15.8909 16.6654 15.8765 16.6489 15.8642C16.6099 15.8313 16.5728 15.7963 16.5358 15.7593C16.4618 15.6873 16.3939 15.6112 16.3301 15.531C16.2417 15.4199 16.0319 15.3438 15.894 15.35C15.7418 15.3561 15.5588 15.4055 15.458 15.531C15.3942 15.6112 15.3263 15.6873 15.2523 15.7593C15.2193 15.7922 15.1864 15.8231 15.1515 15.8539C15.133 15.8704 15.1124 15.8868 15.0939 15.9033C15.0754 15.9197 14.9972 15.9794 15.0836 15.9115C15.172 15.8416 15.0877 15.9074 15.0712 15.9177C15.0548 15.93 15.0383 15.9403 15.0198 15.9527C14.9766 15.9815 14.9334 16.0082 14.8882 16.0349C14.7997 16.0864 14.7051 16.1337 14.6105 16.1748C14.6599 16.1542 14.7092 16.1337 14.7586 16.1131C14.5529 16.1995 14.341 16.2571 14.1189 16.2879C14.1744 16.2797 14.2279 16.2735 14.2834 16.2653C14.0674 16.2921 13.8494 16.2921 13.6314 16.2653C13.6869 16.2735 13.7404 16.2797 13.7959 16.2879C13.5758 16.2571 13.3619 16.1995 13.1562 16.1131C13.2056 16.1337 13.2549 16.1542 13.3043 16.1748C13.2097 16.1337 13.1171 16.0884 13.0266 16.0349C12.9875 16.0123 12.9464 15.9876 12.9094 15.9609C12.8888 15.9465 12.8662 15.9321 12.8456 15.9177C12.825 15.9033 12.7469 15.8436 12.8333 15.9115C12.9217 15.9815 12.8374 15.9136 12.823 15.9033C12.8065 15.8909 12.7921 15.8765 12.7757 15.8642C12.7366 15.8313 12.6995 15.7963 12.6625 15.7593C12.5885 15.6873 12.5206 15.6112 12.4568 15.531C12.3684 15.4199 12.1586 15.3438 12.0207 15.35C11.8685 15.3561 11.6855 15.4055 11.5847 15.531C11.5209 15.6112 11.453 15.6873 11.379 15.7593C11.3461 15.7922 11.3131 15.8231 11.2782 15.8539C11.2597 15.8704 11.2391 15.8868 11.2206 15.9033C11.2021 15.9197 11.1239 15.9794 11.2103 15.9115C11.2987 15.8416 11.2144 15.9074 11.198 15.9177C11.1815 15.93 11.165 15.9403 11.1465 15.9527C11.1033 15.9815 11.0601 16.0082 11.0149 16.0349C10.9264 16.0864 10.8339 16.1337 10.7372 16.1748C10.7866 16.1542 10.8359 16.1337 10.8853 16.1131C10.6796 16.1995 10.4677 16.2571 10.2456 16.2879C10.3011 16.2797 10.3546 16.2735 10.4101 16.2653C10.1941 16.2921 9.97611 16.2921 9.75807 16.2653C9.81361 16.2735 9.86709 16.2797 9.92263 16.2879C9.70253 16.2571 9.4886 16.1995 9.28496 16.1131C9.33433 16.1337 9.3837 16.1542 9.43306 16.1748C9.33844 16.1337 9.24588 16.0884 9.15537 16.0349C9.11629 16.0123 9.07515 15.9876 9.03813 15.9609C9.01756 15.9465 8.99493 15.9321 8.97436 15.9177C8.95379 15.9033 8.87562 15.8436 8.96202 15.9115C9.05047 15.9815 8.96613 15.9136 8.95173 15.9033C8.93528 15.8909 8.92088 15.8765 8.90442 15.8642C8.86534 15.8313 8.82831 15.7963 8.79129 15.7593C8.71724 15.6873 8.64936 15.6112 8.58559 15.531C8.49714 15.4199 8.28733 15.3438 8.14951 15.35C7.99729 15.3561 7.81422 15.4055 7.71343 15.531C7.64966 15.6112 7.58178 15.6873 7.50773 15.7593C7.47482 15.7922 7.44191 15.8231 7.40694 15.8539C7.38843 15.8704 7.36786 15.8868 7.34935 15.9033C7.33083 15.9197 7.25267 15.9794 7.33906 15.9115C7.42751 15.8416 7.34317 15.9074 7.32672 15.9177C7.31026 15.93 7.29381 15.9403 7.27529 15.9527C7.2321 15.9815 7.1889 16.0082 7.1457 16.0349C7.05725 16.0864 6.96469 16.1337 6.87007 16.1748C6.91944 16.1542 6.9688 16.1337 7.01817 16.1131C6.81247 16.1995 6.60061 16.2571 6.38051 16.2879C6.43605 16.2797 6.48953 16.2735 6.54507 16.2653C6.32291 16.2941 6.0987 16.2921 5.87449 16.2633C5.93003 16.2715 5.98351 16.2777 6.03905 16.2859C5.82924 16.255 5.62354 16.1995 5.42813 16.1193C5.47749 16.1398 5.52686 16.1604 5.57623 16.181C5.47544 16.1378 5.37876 16.0905 5.28414 16.0349C5.243 16.0102 5.20186 15.9835 5.16072 15.9568C5.13809 15.9424 5.11752 15.9259 5.0949 15.9115C5.00439 15.8498 5.21009 16.002 5.11958 15.93C4.92005 15.7696 4.69379 15.6976 4.44489 15.8025C4.22068 15.8971 4.06641 16.1193 4.06641 16.3661C4.06641 17.1354 4.06641 17.9027 4.06641 18.672C4.06641 19.141 4.06641 19.612 4.06641 20.081C4.06641 20.5212 4.06435 20.9573 4.33998 21.3337C4.6403 21.743 5.08667 21.9899 5.60091 21.9981C5.62971 21.9981 5.66057 21.9981 5.68936 21.9981C5.87449 21.9981 6.05756 21.9981 6.24269 21.9981C6.99143 21.9981 7.74223 21.9981 8.49097 21.9981C9.53591 21.9981 10.5809 21.9981 11.6258 21.9981C12.7037 21.9981 13.7795 21.9981 14.8573 21.9981C15.7027 21.9981 16.5502 21.9981 17.3956 21.9981C17.7494 21.9981 18.1012 22.0022 18.455 21.9981C18.9754 21.9919 19.432 21.7348 19.7303 21.3131C19.9113 21.056 19.9874 20.7372 19.9874 20.4245C19.9874 20.0934 19.9874 19.7642 19.9874 19.4331C19.9874 18.4745 19.9874 17.518 19.9874 16.5595C19.9874 16.4957 19.9874 16.4319 19.9874 16.3682C19.9874 16.0452 19.7036 15.7367 19.3703 15.7511C19.0248 15.7716 18.743 16.0267 18.743 16.3723Z" fill="#7C7C8D" stroke="#7C7C8D" stroke-width="2" mask="url(#path-1-inside-1_488_3735)"/>
<path d="M19.6589 14.447C19.6589 14.556 19.6506 14.663 19.6383 14.772C19.6465 14.7165 19.6527 14.663 19.6609 14.6075C19.6301 14.8276 19.5725 15.0394 19.4881 15.2431C19.5087 15.1937 19.5293 15.1443 19.5499 15.095C19.4881 15.2369 19.4161 15.3727 19.3318 15.5002C19.3092 15.5352 19.2845 15.5681 19.2619 15.601C19.2002 15.6874 19.3586 15.4858 19.2824 15.5722C19.2331 15.6298 19.1837 15.6874 19.1282 15.7429C19.0747 15.7964 19.0191 15.8499 18.9595 15.8972C18.9225 15.928 18.8381 15.9754 18.9862 15.8787C18.9492 15.9013 18.9163 15.9301 18.8813 15.9548C18.7456 16.0474 18.6016 16.1235 18.4514 16.1872C18.5008 16.1667 18.5502 16.1461 18.5995 16.1255C18.4041 16.2057 18.2005 16.2613 17.9907 16.2921C18.0462 16.2839 18.0997 16.2777 18.1552 16.2695C17.9331 16.2983 17.7089 16.3004 17.4867 16.2716C17.5422 16.2798 17.5957 16.286 17.6513 16.2942C17.4312 16.2633 17.2172 16.2057 17.0115 16.1193C17.0609 16.1399 17.1103 16.1605 17.1596 16.1811C17.065 16.1399 16.9725 16.0947 16.882 16.0412C16.8429 16.0186 16.8017 15.9939 16.7647 15.9671C16.7441 15.9527 16.7215 15.9383 16.7009 15.9239C16.6804 15.9095 16.6022 15.8499 16.6886 15.9178C16.777 15.9877 16.6927 15.9198 16.6783 15.9095C16.6619 15.8972 16.6475 15.8828 16.631 15.8705C16.5919 15.8375 16.5549 15.8026 16.5179 15.7655C16.4438 15.6935 16.3759 15.6174 16.3122 15.5372C16.2237 15.4261 16.0139 15.35 15.8761 15.3562C15.7239 15.3624 15.5408 15.4117 15.44 15.5372C15.3762 15.6174 15.3084 15.6935 15.2343 15.7655C15.2014 15.7985 15.1685 15.8293 15.1335 15.8602C15.115 15.8766 15.0944 15.8931 15.0759 15.9095C15.0574 15.926 14.9792 15.9856 15.0656 15.9178C15.1541 15.8478 15.0698 15.9136 15.0533 15.9239C15.0368 15.9363 15.0204 15.9466 15.0019 15.9589C14.9587 15.9877 14.9155 16.0144 14.8702 16.0412C14.7818 16.0926 14.6872 16.1399 14.5925 16.1811C14.6419 16.1605 14.6913 16.1399 14.7406 16.1193C14.5349 16.2057 14.3231 16.2633 14.1009 16.2942C14.1565 16.286 14.2099 16.2798 14.2655 16.2716C14.0495 16.2983 13.8315 16.2983 13.6134 16.2716C13.669 16.2798 13.7224 16.286 13.778 16.2942C13.5579 16.2633 13.344 16.2057 13.1383 16.1193C13.1876 16.1399 13.237 16.1605 13.2864 16.1811C13.1917 16.1399 13.0992 16.0947 13.0087 16.0412C12.9696 16.0186 12.9284 15.9939 12.8914 15.9671C12.8708 15.9527 12.8482 15.9383 12.8277 15.9239C12.8071 15.9095 12.7289 15.8499 12.8153 15.9178C12.9038 15.9877 12.8194 15.9198 12.805 15.9095C12.7886 15.8972 12.7742 15.8828 12.7577 15.8705C12.7186 15.8375 12.6816 15.8026 12.6446 15.7655C12.5705 15.6935 12.5026 15.6174 12.4389 15.5372C12.3504 15.4261 12.1406 15.35 12.0028 15.3562C11.8506 15.3624 11.6675 15.4117 11.5667 15.5372C11.503 15.6174 11.4351 15.6935 11.361 15.7655C11.3281 15.7985 11.2952 15.8293 11.2602 15.8602C11.2417 15.8766 11.2212 15.8931 11.2026 15.9095C11.1841 15.926 11.106 15.9856 11.1924 15.9178C11.2808 15.8478 11.1965 15.9136 11.18 15.9239C11.1636 15.9363 11.1471 15.9466 11.1286 15.9589C11.0854 15.9877 11.0422 16.0144 10.9969 16.0412C10.9085 16.0926 10.8139 16.1399 10.7192 16.1811C10.7686 16.1605 10.818 16.1399 10.8674 16.1193C10.6617 16.2057 10.4498 16.2633 10.2276 16.2942C10.2832 16.286 10.3367 16.2798 10.3922 16.2716C10.1762 16.2983 9.95817 16.2983 9.74013 16.2716C9.79567 16.2798 9.84915 16.286 9.90469 16.2942C9.68459 16.2633 9.47066 16.2057 9.26497 16.1193C9.31433 16.1399 9.3637 16.1605 9.41307 16.1811C9.31845 16.1399 9.22588 16.0947 9.13538 16.0412C9.09629 16.0186 9.05515 15.9939 9.01813 15.9671C8.99756 15.9527 8.97493 15.9383 8.95436 15.9239C8.93379 15.9095 8.85563 15.8499 8.94202 15.9178C9.03047 15.9877 8.94614 15.9198 8.93174 15.9095C8.91528 15.8972 8.90088 15.8828 8.88443 15.8705C8.84534 15.8375 8.80832 15.8026 8.77129 15.7655C8.69724 15.6935 8.62936 15.6174 8.56559 15.5372C8.47714 15.4261 8.26733 15.35 8.12951 15.3562C7.9773 15.3624 7.79423 15.4117 7.69344 15.5372C7.62967 15.6174 7.56179 15.6935 7.48774 15.7655C7.45483 15.7985 7.42191 15.8293 7.38695 15.8602C7.36843 15.8766 7.34786 15.8931 7.32935 15.9095C7.31084 15.926 7.23267 15.9856 7.31907 15.9178C7.40752 15.8478 7.32318 15.9136 7.30672 15.9239C7.29027 15.9363 7.27381 15.9466 7.2553 15.9589C7.2121 15.9877 7.16891 16.0144 7.12365 16.0412C7.0352 16.0926 6.94058 16.1399 6.84596 16.1811C6.89533 16.1605 6.9447 16.1399 6.99406 16.1193C6.78837 16.2057 6.57444 16.2633 6.35434 16.2942C6.40988 16.286 6.46336 16.2798 6.5189 16.2716C6.29675 16.3004 6.07254 16.2983 5.85038 16.2695C5.90592 16.2777 5.9594 16.2839 6.01494 16.2921C5.80513 16.2613 5.60149 16.2057 5.40608 16.1255C5.45544 16.1461 5.50481 16.1667 5.55418 16.1872C5.40402 16.1235 5.26003 16.0453 5.12427 15.9548C5.0893 15.9301 5.05022 15.9075 5.01937 15.8787C5.04405 15.8972 5.06873 15.9157 5.09342 15.9363C5.07696 15.9239 5.06256 15.9116 5.04611 15.8972C4.98851 15.8478 4.93092 15.7964 4.87743 15.7409C4.82395 15.6853 4.77459 15.6277 4.72316 15.5701C4.64705 15.4817 4.81161 15.6935 4.74373 15.5989C4.7211 15.566 4.69642 15.5331 4.67379 15.4981C4.5874 15.3706 4.51541 15.2328 4.45575 15.0909C4.47632 15.1402 4.49689 15.1896 4.51746 15.239C4.43313 15.0353 4.37553 14.8214 4.34468 14.6033C4.35291 14.6589 4.35908 14.7124 4.3673 14.7679C4.34056 14.5458 4.34056 14.3236 4.36936 14.1014C4.36113 14.157 4.35496 14.2105 4.34673 14.266C4.37759 14.0541 4.43313 13.8505 4.51541 13.653C4.49484 13.7024 4.47427 13.7518 4.4537 13.8011C4.51335 13.6592 4.58534 13.5234 4.67174 13.3959C4.69436 13.363 4.71699 13.3301 4.74167 13.2972C4.81161 13.1984 4.64911 13.4082 4.72728 13.3157C4.7787 13.254 4.83218 13.1943 4.88978 13.1367C4.94326 13.0832 5.00085 13.0318 5.05845 12.9824C5.06462 12.9783 5.09342 12.9475 5.09959 12.9495C5.09959 12.9495 4.97 13.0462 5.03788 12.9968C5.07079 12.9742 5.1037 12.9495 5.13661 12.9269C5.26826 12.8385 5.40813 12.7644 5.55418 12.7027C5.50481 12.7233 5.45544 12.7438 5.40608 12.7644C5.60355 12.6821 5.80719 12.6266 6.01906 12.5957C5.96352 12.604 5.91004 12.6101 5.8545 12.6184C6.07459 12.5896 6.29881 12.5957 6.52096 12.5957C6.81099 12.5957 7.10103 12.5957 7.39312 12.5957C8.32698 12.5957 9.26291 12.5978 10.1968 12.5978C12.2394 12.5998 14.2819 12.6019 16.3266 12.6019C16.6824 12.6019 17.0403 12.6019 17.3962 12.6019C17.6451 12.6019 17.8981 12.5937 18.147 12.6245C18.0915 12.6163 18.038 12.6101 17.9824 12.6019C18.1943 12.6328 18.3979 12.6883 18.5954 12.7685C18.546 12.7479 18.4967 12.7274 18.4473 12.7068C18.5892 12.7665 18.725 12.8385 18.8525 12.9228C18.8854 12.9454 18.9184 12.968 18.9513 12.9927C19.05 13.0627 18.8402 12.9002 18.9328 12.9783C18.9945 13.0298 19.0541 13.0832 19.1117 13.1408C19.1652 13.1943 19.2166 13.2498 19.266 13.3095C19.2701 13.3136 19.301 13.3465 19.2989 13.3506C19.2989 13.3506 19.2022 13.2211 19.2516 13.2889C19.2742 13.3218 19.2989 13.3548 19.3215 13.3877C19.41 13.5193 19.484 13.6592 19.5457 13.8032C19.5252 13.7538 19.5046 13.7044 19.484 13.6551C19.5663 13.8525 19.6218 14.0562 19.6527 14.266C19.6445 14.2105 19.6383 14.157 19.6301 14.1014C19.6506 14.2187 19.6589 14.3318 19.6589 14.447C19.6609 14.77 19.9407 15.0785 20.276 15.0641C20.6092 15.0497 20.8951 14.7926 20.8931 14.447C20.891 13.9451 20.7676 13.4555 20.5372 13.0092C20.3192 12.5834 19.9921 12.2358 19.6116 11.9498C19.268 11.6927 18.8484 11.5076 18.4247 11.4294C18.1264 11.3739 17.8323 11.3657 17.5299 11.3657C15.6416 11.3636 13.7533 11.3636 11.865 11.3615C10.0363 11.3595 8.20768 11.3574 6.38108 11.3574C6.04785 11.3574 5.71668 11.378 5.39374 11.4644C4.92475 11.5899 4.50101 11.8326 4.13692 12.1514C3.43755 12.7644 3.04055 13.7435 3.12695 14.6712C3.17631 15.204 3.33676 15.7306 3.64736 16.1708C3.95385 16.6069 4.35908 16.9833 4.84658 17.2116C5.36494 17.4543 5.93883 17.5757 6.51067 17.5078C7.05166 17.442 7.57002 17.2671 8.01021 16.936C8.21796 16.7796 8.40926 16.613 8.57176 16.4094C8.28173 16.4094 7.98964 16.4094 7.69961 16.4094C8.11923 16.9319 8.74867 17.3186 9.4069 17.4523C10.1433 17.6045 10.9085 17.4996 11.5688 17.1376C11.9 16.9565 12.2044 16.7035 12.4409 16.4094C12.1509 16.4094 11.8588 16.4094 11.5688 16.4094C11.9884 16.9319 12.6178 17.3186 13.2761 17.4523C14.0125 17.6045 14.7777 17.4996 15.438 17.1376C15.7691 16.9565 16.0736 16.7035 16.3101 16.4094C16.0201 16.4094 15.728 16.4094 15.438 16.4094C16.0345 17.152 17.0157 17.5819 17.9639 17.5222C18.9883 17.4584 19.9304 16.9051 20.4611 16.0186C20.7429 15.5454 20.8889 14.9942 20.8931 14.445C20.8951 14.122 20.6071 13.8135 20.276 13.8279C19.9407 13.8443 19.6609 14.1014 19.6589 14.447Z" fill="#7C7C8D"/>
<path d="M12.7571 8.96287C12.7571 9.84326 12.7571 10.7236 12.7571 11.604C12.7571 11.7316 12.7571 11.857 12.7571 11.9846C12.9628 11.7789 13.1685 11.5732 13.3742 11.3675C12.4692 11.3675 11.5641 11.3654 10.659 11.3654C10.8647 11.5711 11.0704 11.7768 11.2761 11.9825C11.2761 11.0939 11.2761 10.2053 11.2761 9.31667C11.2761 9.18091 11.2679 9.04309 11.2802 8.90939C11.272 8.96493 11.2658 9.01841 11.2576 9.07395C11.2638 9.03692 11.272 9.00195 11.2843 8.96699C11.2638 9.01635 11.2432 9.06572 11.2226 9.11509C11.2329 9.0904 11.2473 9.06778 11.2576 9.04309C11.3008 8.95259 11.1589 9.15829 11.2268 9.08423C11.2926 9.01224 11.093 9.16034 11.1856 9.11509C11.2103 9.10275 11.2329 9.0904 11.2576 9.08012C11.2082 9.10069 11.1589 9.12126 11.1095 9.14183C11.1445 9.12949 11.1794 9.12126 11.2165 9.11509C11.1609 9.12332 11.1074 9.12949 11.0519 9.13771C11.2679 9.11715 11.4942 9.1336 11.7101 9.1336C12.0434 9.1336 12.3766 9.1336 12.7078 9.1336C12.7962 9.1336 12.8867 9.12949 12.9752 9.13771C12.9196 9.12949 12.8662 9.12332 12.8106 9.11509C12.8477 9.12126 12.8826 9.12949 12.9176 9.14183C12.8682 9.12126 12.8189 9.10069 12.7695 9.08012C12.7942 9.0904 12.8168 9.1048 12.8415 9.11509C12.932 9.15829 12.7263 9.01635 12.8003 9.08423C12.8723 9.15006 12.7242 8.95053 12.7695 9.04309C12.7818 9.06778 12.7942 9.0904 12.8045 9.11509C12.7839 9.06572 12.7633 9.01635 12.7427 8.96699C12.7551 9.00195 12.7633 9.03692 12.7695 9.07395C12.7613 9.01841 12.7551 8.96493 12.7469 8.90939C12.7551 8.92379 12.7571 8.9423 12.7571 8.96287C12.7674 9.28582 13.0328 9.59436 13.3742 9.57997C13.6992 9.56557 14.0016 9.30844 13.9913 8.96287C13.9728 8.36018 13.5018 7.89736 12.897 7.89324C12.7119 7.89119 12.5247 7.89324 12.3396 7.89324C11.9302 7.89324 11.5209 7.88296 11.1116 7.89324C10.513 7.9097 10.0522 8.37663 10.0419 8.97316C10.0399 9.0904 10.0419 9.20971 10.0419 9.32901C10.0419 9.83915 10.0419 10.3493 10.0419 10.8573C10.0419 11.2317 10.0419 11.6061 10.0419 11.9805C10.0419 12.3137 10.3237 12.5976 10.659 12.5976C11.5641 12.5976 12.4692 12.5996 13.3742 12.5996C13.7075 12.5996 13.9913 12.3157 13.9913 11.9825C13.9913 11.1021 13.9913 10.2217 13.9913 9.34136C13.9913 9.21382 13.9913 9.08835 13.9913 8.96082C13.9913 8.63787 13.7075 8.32932 13.3742 8.34372C13.039 8.36018 12.7571 8.61524 12.7571 8.96287Z" fill="#7C7C8D"/>
<path d="M12.973 5.22741C12.973 5.30352 12.9669 5.37757 12.9566 5.45368C12.9648 5.39814 12.971 5.34466 12.9792 5.28912C12.9586 5.42694 12.9216 5.55858 12.8681 5.68612C12.8887 5.63675 12.9093 5.58738 12.9298 5.53801C12.8908 5.62852 12.8435 5.71492 12.7879 5.7972C12.7756 5.81571 12.7612 5.83422 12.7488 5.85273C12.7097 5.91239 12.8496 5.72931 12.7879 5.80131C12.755 5.83833 12.7241 5.87536 12.6892 5.91033C12.6583 5.94118 12.6234 5.97204 12.5904 6.00084C12.5061 6.07489 12.6419 5.96381 12.6419 5.96175C12.6419 5.96587 12.5802 6.00495 12.576 6.00906C12.4938 6.0646 12.4074 6.10986 12.3169 6.151C12.3662 6.13043 12.4156 6.10986 12.465 6.08929C12.3374 6.14277 12.2058 6.17979 12.068 6.20036C12.1235 6.19214 12.177 6.18597 12.2325 6.17774C12.0824 6.19831 11.9302 6.19831 11.78 6.17774C11.8355 6.18597 11.889 6.19214 11.9446 6.20036C11.8067 6.17979 11.6751 6.14277 11.5476 6.08929C11.5969 6.10986 11.6463 6.13043 11.6957 6.151C11.6052 6.11191 11.5188 6.0646 11.4365 6.00906C11.418 5.99672 11.3995 5.98232 11.3809 5.96998C11.3213 5.9309 11.5044 6.07077 11.4324 6.00906C11.3953 5.97615 11.3583 5.9453 11.3233 5.91033C11.2925 5.87947 11.2616 5.84451 11.2328 5.81159C11.1588 5.72726 11.2699 5.86302 11.2719 5.86302C11.2678 5.86302 11.2287 5.80131 11.2246 5.7972C11.1691 5.71492 11.1238 5.62852 11.0827 5.53801C11.1033 5.58738 11.1238 5.63675 11.1444 5.68612C11.0909 5.55858 11.0539 5.42694 11.0333 5.28912C11.0415 5.34466 11.0477 5.39814 11.0559 5.45368C11.0415 5.3426 11.0333 5.22947 11.0477 5.11633C11.0395 5.17187 11.0333 5.22535 11.0251 5.28089C11.0457 5.13073 11.095 4.9888 11.1526 4.85098C11.1321 4.90035 11.1115 4.94972 11.0909 4.99908C11.2575 4.61237 11.4941 4.25651 11.7409 3.91711C11.8006 3.83277 11.8643 3.75255 11.926 3.67027C11.9322 3.66204 11.817 3.81015 11.8705 3.74227C11.8767 3.73404 11.8828 3.72581 11.8911 3.71758C11.9034 3.70113 11.9178 3.68467 11.9302 3.66822C11.961 3.62913 11.9939 3.58799 12.0248 3.54891C12.1173 3.43372 12.212 3.32058 12.3086 3.20951C12.3539 3.15808 12.3991 3.10666 12.4444 3.05523C12.1544 3.05523 11.8623 3.05523 11.5722 3.05523C11.7018 3.19717 11.8273 3.34733 11.9487 3.49543C12.0063 3.56537 12.0639 3.63736 12.1194 3.70935C12.1379 3.73198 12.1996 3.8122 12.1235 3.71553C12.0495 3.6209 12.105 3.6929 12.1235 3.71553C12.1585 3.76078 12.1934 3.80603 12.2264 3.85334C12.3539 4.02613 12.4773 4.20303 12.5904 4.38405C12.7159 4.58152 12.8311 4.78722 12.9237 5.0032C12.9031 4.95383 12.8825 4.90446 12.862 4.8551C12.9196 4.99291 12.9689 5.1369 12.9895 5.28501C12.9813 5.22947 12.9751 5.17599 12.9669 5.12045C12.9689 5.15336 12.973 5.18833 12.973 5.22741C12.9772 5.55036 13.2548 5.8589 13.5901 5.84451C13.9213 5.83011 14.2113 5.57298 14.2072 5.22741C14.2011 4.66791 13.8987 4.13104 13.6025 3.67439C13.3145 3.23213 12.9874 2.81251 12.646 2.4114C12.5802 2.33323 12.5123 2.25507 12.4444 2.17896C12.2264 1.94035 11.7882 1.94035 11.5722 2.17896C11.3624 2.4114 11.1629 2.65412 10.9716 2.90096C10.5746 3.41315 10.2023 3.93768 9.95752 4.54038C9.66543 5.25621 9.84644 6.03786 10.3195 6.63233C10.8482 7.29674 11.7759 7.57032 12.5884 7.35022C13.5387 7.09104 14.199 6.20448 14.2093 5.22741C14.2113 4.90446 13.9234 4.59592 13.5922 4.61031C13.2528 4.62471 12.9751 4.87978 12.973 5.22741Z" fill="#7C7C8D"/>
</svg>
