<svg width="24" height="24" viewBox="0 0 24 24" fill="none" xmlns="http://www.w3.org/2000/svg">
<path d="M12.0542 15.3708L17.7042 9.71079C17.7979 9.61783 17.8723 9.50723 17.9231 9.38537C17.9739 9.26351 18 9.1328 18 9.00079C18 8.86878 17.9739 8.73807 17.9231 8.61622C17.8723 8.49436 17.7979 8.38376 17.7042 8.29079C17.5168 8.10454 17.2634 8 16.9992 8C16.735 8 16.4816 8.10454 16.2942 8.29079L11.2942 13.2408L6.3442 8.29079C6.15684 8.10454 5.90339 8 5.6392 8C5.37502 8 5.12156 8.10454 4.9342 8.29079C4.83971 8.38341 4.76454 8.49385 4.71305 8.61573C4.66155 8.7376 4.63475 8.86848 4.6342 9.00079C4.63475 9.1331 4.66155 9.26398 4.71305 9.38586C4.76454 9.50773 4.83971 9.61818 4.9342 9.71079L10.5842 15.3708C10.6778 15.4723 10.7915 15.5533 10.918 15.6087C11.0445 15.6641 11.1811 15.6927 11.3192 15.6927C11.4573 15.6927 11.5939 15.6641 11.7204 15.6087C11.8469 15.5533 11.9606 15.4723 12.0542 15.3708Z" fill="#72767C"/>
</svg>
