<svg width="20" height="20" viewBox="0 0 20 20" fill="none" xmlns="http://www.w3.org/2000/svg">
<path d="M10.0452 12.8093L14.7535 8.09265C14.8316 8.01518 14.8936 7.92302 14.9359 7.82147C14.9782 7.71992 15 7.611 15 7.50099C15 7.39098 14.9782 7.28205 14.9359 7.18051C14.8936 7.07896 14.8316 6.98679 14.7535 6.90932C14.5974 6.75411 14.3862 6.66699 14.166 6.66699C13.9458 6.66699 13.7346 6.75411 13.5785 6.90932L9.41183 11.0343L5.28683 6.90932C5.1307 6.75411 4.91949 6.66699 4.69933 6.66699C4.47918 6.66699 4.26797 6.75411 4.11183 6.90932C4.03309 6.9865 3.97045 7.07854 3.92754 7.1801C3.88462 7.28166 3.86229 7.39073 3.86184 7.50099C3.86229 7.61124 3.88462 7.72031 3.92754 7.82187C3.97045 7.92344 4.03309 8.01547 4.11183 8.09265L8.82017 12.8093C8.8982 12.8939 8.99291 12.9614 9.09833 13.0076C9.20375 13.0538 9.31758 13.0776 9.43267 13.0776C9.54775 13.0776 9.66159 13.0538 9.76701 13.0076C9.87242 12.9614 9.96713 12.8939 10.0452 12.8093Z" fill="white"/>
</svg>
