<svg width="24" height="24" viewBox="0 0 24 24" fill="none" xmlns="http://www.w3.org/2000/svg">
<path fill-rule="evenodd" clip-rule="evenodd" d="M4.72729 4H19.2726C20.7789 4 21.9999 5.26605 21.9999 6.82781V7.22816C22 7.23805 22 7.24795 21.9999 7.25783V17.1964C21.9999 18.7582 20.7789 20.0242 19.2726 20.0242H4.72729C3.22108 20.0242 2.00004 18.7582 2.00004 17.1964V7.25222C1.99999 7.24607 1.99999 7.23992 2.00004 7.23377V6.82781C2.00004 5.26605 3.22108 4 4.72729 4ZM3.8184 9.05434V17.1965C3.8184 17.7171 4.22541 18.1391 4.72749 18.1391H19.2728C19.7749 18.1391 20.1819 17.7171 20.1819 17.1965V9.05412L13.564 13.8575C12.6249 14.539 11.3751 14.539 10.436 13.8575L3.8184 9.05434ZM20.1792 6.75488L12.5213 12.3131C12.2083 12.5402 11.7917 12.5402 11.4787 12.3131L3.82107 6.7551C3.8569 6.26852 4.24903 5.88527 4.72749 5.88527H19.2728C19.7512 5.88527 20.1433 6.2684 20.1792 6.75488Z" fill="#7C7C8D"/>
</svg>
