<svg width="24" height="24" viewBox="0 0 24 24" fill="none" xmlns="http://www.w3.org/2000/svg">
<path d="M4.00009 8.01673L10.0001 2.76302C10.5501 2.27165 11.2622 2 12.0001 2C12.738 2 13.4501 2.27165 14.0001 2.76302L20.0001 8.01673M4.00009 8.01673C3.68246 8.30047 3.42899 8.64853 3.25657 9.03776C3.08414 9.42698 2.99671 9.84842 3.00009 10.274V19.0036C3.00009 19.7983 3.31617 20.5604 3.87877 21.1224C4.44138 21.6843 5.20445 22 6.0001 22H18.0001C18.7957 22 19.5588 21.6843 20.1214 21.1224C20.684 20.5604 21.0001 19.7983 21.0001 19.0036V10.264C21.0021 9.84011 20.9139 9.42059 20.7416 9.0332C20.5692 8.6458 20.3165 8.29935 20.0001 8.01673M4.00009 8.01673L4.33319 8.38962C4.33261 8.39014 4.33202 8.39067 4.33144 8.39119M4.00009 8.01673L4.32948 8.39291L4.33144 8.39119M20.0001 8.01673L19.6707 8.39291L19.6687 8.39116C19.9315 8.62637 20.1415 8.91446 20.2847 9.23647C20.4283 9.55918 20.5017 9.90862 20.5001 10.2617V10.264V19.0036C20.5001 19.6655 20.2369 20.3004 19.7681 20.7686C19.2993 21.2368 18.6633 21.5 18.0001 21.5H6.0001C5.33686 21.5 4.70091 21.2368 4.23212 20.7686C3.76334 20.3004 3.50009 19.6655 3.50009 19.0036V10.274H3.50011L3.50008 10.2701C3.49726 9.91555 3.57008 9.56451 3.71372 9.24028C3.85704 8.91676 4.06759 8.62733 4.33144 8.39119M20.0001 8.01673L19.667 8.38961L13.6707 3.13919L13.667 3.13591L13.667 3.13589C13.2087 2.72645 12.6152 2.5 12.0001 2.5C11.385 2.5 10.7915 2.72645 10.3332 3.13589L10.3295 3.13921L10.3295 3.13919L4.33144 8.39119M14.0001 20.5024H14.5001V20.0024V15.0084C14.5001 14.6107 14.3419 14.2294 14.0605 13.9483C13.7792 13.6673 13.3977 13.5096 13.0001 13.5096H11.0001C10.6025 13.5096 10.221 13.6673 9.93965 13.9483C9.65828 14.2294 9.5001 14.6107 9.5001 15.0084V20.0024V20.5024H10.0001H14.0001ZM15.5001 20.0024V20.5024H16.0001H18.0001C18.3977 20.5024 18.7792 20.3446 19.0605 20.0636C19.3419 19.7826 19.5001 19.4013 19.5001 19.0036V10.264V10.2634C19.4998 10.0505 19.4542 9.84013 19.3662 9.64626C19.2782 9.45241 19.1499 9.27953 18.9899 9.13911L18.9891 9.13846L12.9899 3.89539C12.9897 3.89523 12.9895 3.89508 12.9894 3.89493C12.7157 3.65501 12.3641 3.52278 12.0001 3.52278C11.6361 3.52278 11.2845 3.65501 11.0108 3.89493C11.0107 3.89508 11.0105 3.89523 11.0103 3.89539L5.01107 9.13846L5.01032 9.13911C4.8503 9.27953 4.722 9.4524 4.63401 9.64627C4.54602 9.84013 4.50037 10.0505 4.5001 10.2634V10.264V19.0036C4.5001 19.4013 4.65828 19.7826 4.93965 20.0636L5.29299 19.7098L4.93965 20.0636C5.221 20.3446 5.60246 20.5024 6.0001 20.5024H8.0001H8.5001V20.0024V15.0084C8.5001 14.3465 8.76334 13.7116 9.23212 13.2433C9.70091 12.7751 10.3369 12.512 11.0001 12.512H13.0001C13.6633 12.512 14.2993 12.7751 14.7681 13.2433C15.2368 13.7116 15.5001 14.3465 15.5001 15.0084V20.0024Z" fill="#7C7C8D" stroke="#7C7C8D"/>
</svg>
