<svg width="48" height="48" viewBox="0 0 48 48" fill="none" xmlns="http://www.w3.org/2000/svg">
<circle cx="24" cy="24" r="24" fill="#FF7E86" fill-opacity="0.1"/>
<path fill-rule="evenodd" clip-rule="evenodd" d="M23.5121 12V13.5659C22.2679 13.8973 20.8458 14.8434 20.8263 15.6332C20.8205 15.8656 21.0134 16.0529 21.2459 16.0529H27.4317C27.6642 16.0529 27.8571 15.8656 27.8514 15.6332C27.8318 14.8434 26.4098 13.8974 25.1655 13.5659V12H23.5121Z" fill="#FF6370"/>
<path fill-rule="evenodd" clip-rule="evenodd" d="M26.0415 17.7862C26.0418 17.9744 25.9674 18.155 25.8346 18.2882C25.7018 18.4214 25.5214 18.4962 25.3331 18.4962C25.1451 18.4962 24.9646 18.4214 24.8319 18.2882C24.6991 18.155 24.6246 17.9744 24.625 17.7862C24.6246 17.5981 24.699 17.4175 24.8319 17.2843C24.9647 17.1511 25.1451 17.0762 25.3331 17.0762C25.5214 17.0762 25.7018 17.1511 25.8346 17.2843C25.9674 17.4175 26.0418 17.5981 26.0415 17.7862Z" fill="#FF6370"/>
<path fill-rule="evenodd" clip-rule="evenodd" d="M28.0307 17.7862C28.0311 17.9744 27.9567 18.155 27.8239 18.2882C27.6911 18.4214 27.5106 18.4962 27.3224 18.4962C27.1343 18.4962 26.9539 18.4214 26.8211 18.2882C26.6883 18.155 26.6139 17.9744 26.6143 17.7862C26.6139 17.5981 26.6883 17.4175 26.8211 17.2843C26.9539 17.1511 27.1344 17.0762 27.3224 17.0762C27.5106 17.0762 27.6911 17.1511 27.8239 17.2843C27.9567 17.4175 28.0311 17.5981 28.0307 17.7862Z" fill="#FF6370"/>
<path fill-rule="evenodd" clip-rule="evenodd" d="M28.3784 20.1573C28.3788 20.3455 28.3044 20.5261 28.1715 20.6593C28.0387 20.7925 27.8583 20.8673 27.6701 20.8673C27.482 20.8673 27.3016 20.7925 27.1688 20.6593C27.0359 20.5261 26.9615 20.3455 26.9619 20.1573C26.9615 19.9692 27.0359 19.7886 27.1688 19.6554C27.3016 19.5222 27.482 19.4473 27.6701 19.4473C27.8583 19.4473 28.0387 19.5222 28.1715 19.6554C28.3043 19.7886 28.3788 19.9692 28.3784 20.1573Z" fill="#FF6370"/>
<path fill-rule="evenodd" clip-rule="evenodd" d="M28.7251 22.5293C28.7254 22.7176 28.651 22.8982 28.5182 23.0314C28.3854 23.1646 28.205 23.2394 28.0167 23.2394C27.8287 23.2394 27.6482 23.1646 27.5154 23.0314C27.3826 22.8982 27.3082 22.7176 27.3086 22.5293C27.3082 22.3413 27.3826 22.1607 27.5154 22.0275C27.6483 21.8943 27.8287 21.8193 28.0167 21.8193C28.205 21.8193 28.3854 21.8943 28.5182 22.0275C28.651 22.1607 28.7254 22.3413 28.7251 22.5293Z" fill="#FF6370"/>
<path fill-rule="evenodd" clip-rule="evenodd" d="M26.1567 20.3575C26.1571 20.5457 26.0827 20.7263 25.9499 20.8595C25.817 20.9927 25.6366 21.0675 25.4484 21.0675C25.2603 21.0675 25.0799 20.9927 24.9471 20.8595C24.8143 20.7263 24.7399 20.5457 24.7402 20.3575C24.7399 20.1694 24.8143 19.9888 24.9471 19.8556C25.0799 19.7224 25.2603 19.6475 25.4484 19.6475C25.6366 19.6475 25.8171 19.7224 25.9499 19.8556C26.0827 19.9888 26.1571 20.1694 26.1567 20.3575Z" fill="#FF6370"/>
<path fill-rule="evenodd" clip-rule="evenodd" d="M26.2729 22.9297C26.2733 23.118 26.1989 23.2986 26.0661 23.4318C25.9333 23.565 25.7528 23.6398 25.5646 23.6398C25.3765 23.6398 25.1961 23.565 25.0633 23.4318C24.9305 23.2986 24.8561 23.118 24.8564 22.9297C24.8561 22.7417 24.9305 22.5611 25.0633 22.4279C25.1961 22.2947 25.3765 22.2197 25.5646 22.2197C25.7528 22.2197 25.9333 22.2947 26.0661 22.4279C26.1989 22.5611 26.2733 22.7417 26.2729 22.9297Z" fill="#FF6370"/>
<path fill-rule="evenodd" clip-rule="evenodd" d="M22.6357 17.7862C22.6354 17.9744 22.7098 18.155 22.8426 18.2882C22.9754 18.4214 23.1558 18.4962 23.3441 18.4962C23.5321 18.4962 23.7126 18.4214 23.8454 18.2882C23.9782 18.155 24.0526 17.9744 24.0522 17.7862C24.0526 17.5981 23.9782 17.4175 23.8454 17.2843C23.7126 17.1511 23.5321 17.0762 23.3441 17.0762C23.1558 17.0762 22.9754 17.1511 22.8426 17.2843C22.7098 17.4175 22.6354 17.5981 22.6357 17.7862Z" fill="#FF6370"/>
<path fill-rule="evenodd" clip-rule="evenodd" d="M20.6455 17.7862C20.6451 17.9744 20.7195 18.155 20.8524 18.2882C20.9852 18.4214 21.1656 18.4962 21.3538 18.4962C21.5419 18.4962 21.7223 18.4214 21.8551 18.2882C21.9879 18.155 22.0624 17.9744 22.062 17.7862C22.0624 17.5981 21.9879 17.4175 21.8551 17.2843C21.7223 17.1511 21.5419 17.0762 21.3538 17.0762C21.1656 17.0762 20.9852 17.1511 20.8524 17.2843C20.7195 17.4175 20.6451 17.5981 20.6455 17.7862Z" fill="#FF6370"/>
<path fill-rule="evenodd" clip-rule="evenodd" d="M20.2988 20.1573C20.2985 20.3455 20.3729 20.5261 20.5057 20.6593C20.6385 20.7925 20.8189 20.8673 21.0072 20.8673C21.1952 20.8673 21.3757 20.7925 21.5085 20.6593C21.6413 20.5261 21.7157 20.3455 21.7153 20.1573C21.7157 19.9692 21.6413 19.7886 21.5085 19.6554C21.3756 19.5222 21.1952 19.4473 21.0072 19.4473C20.8189 19.4473 20.6385 19.5222 20.5057 19.6554C20.3729 19.7886 20.2985 19.9692 20.2988 20.1573Z" fill="#FF6370"/>
<path fill-rule="evenodd" clip-rule="evenodd" d="M19.9521 22.5293C19.9518 22.7176 20.0262 22.8982 20.159 23.0314C20.2918 23.1646 20.4722 23.2394 20.6605 23.2394C20.8485 23.2394 21.029 23.1646 21.1618 23.0314C21.2946 22.8982 21.369 22.7176 21.3686 22.5293C21.369 22.3413 21.2946 22.1607 21.1618 22.0275C21.029 21.8943 20.8485 21.8193 20.6605 21.8193C20.4722 21.8193 20.2918 21.8943 20.159 22.0275C20.0262 22.1607 19.9518 22.3413 19.9521 22.5293Z" fill="#FF6370"/>
<path fill-rule="evenodd" clip-rule="evenodd" d="M22.5195 20.3575C22.5192 20.5457 22.5936 20.7263 22.7264 20.8595C22.8592 20.9927 23.0396 21.0675 23.2279 21.0675C23.4159 21.0675 23.5964 20.9927 23.7292 20.8595C23.862 20.7263 23.9364 20.5457 23.936 20.3575C23.9364 20.1694 23.862 19.9888 23.7292 19.8556C23.5963 19.7224 23.4159 19.6475 23.2279 19.6475C23.0396 19.6475 22.8592 19.7224 22.7264 19.8556C22.5936 19.9888 22.5192 20.1694 22.5195 20.3575Z" fill="#FF6370"/>
<path fill-rule="evenodd" clip-rule="evenodd" d="M22.4043 22.9297C22.4039 23.118 22.4783 23.2986 22.6111 23.4318C22.744 23.565 22.9244 23.6398 23.1126 23.6398C23.3007 23.6398 23.4811 23.565 23.6139 23.4318C23.7467 23.2986 23.8211 23.118 23.8208 22.9297C23.8211 22.7417 23.7467 22.5611 23.6139 22.4279C23.4811 22.2947 23.3007 22.2197 23.1126 22.2197C22.9244 22.2197 22.7439 22.2947 22.6111 22.4279C22.4783 22.5611 22.4039 22.7417 22.4043 22.9297Z" fill="#FF6370"/>
<path fill-rule="evenodd" clip-rule="evenodd" d="M20.5426 24.3984C20.3996 24.3981 20.2582 24.4701 20.1741 24.5858L17.0871 28.8389C17.0311 28.9159 17 29.011 17 29.1062V32.8896C17 33.0086 17.0491 33.1269 17.1332 33.211C17.2174 33.2953 17.3356 33.3442 17.4546 33.3442H31.2224C31.3414 33.3442 31.4597 33.2951 31.5438 33.211C31.6281 33.1267 31.677 33.0086 31.677 32.8896V29.1062C31.677 29.011 31.6459 28.9159 31.5899 28.8389L28.5029 24.5858C28.4188 24.4701 28.2774 24.3981 28.1344 24.3984H20.5426ZM20.6466 24.8638H28.0305C28.1187 24.8642 28.205 24.9096 28.2552 24.982L29.6522 26.9749C29.7098 27.0572 29.7173 27.1719 29.6708 27.2608C29.6244 27.3499 29.526 27.4095 29.4256 27.4091H19.2512C19.1508 27.4095 19.0525 27.3498 19.006 27.2608C18.9595 27.1717 18.967 27.0572 19.0247 26.9749L20.4216 24.982C20.4718 24.9096 20.5582 24.8642 20.6463 24.8638H20.6466ZM19.4042 29.3222C20.0062 29.3222 20.4939 29.8101 20.4939 30.4119C20.4939 31.0139 20.006 31.5016 19.4042 31.5016C18.8023 31.5016 18.3145 31.0137 18.3145 30.4119C18.3145 29.8099 18.8024 29.3222 19.4042 29.3222ZM29.2729 29.3222C29.8748 29.3222 30.3626 29.8101 30.3626 30.4119C30.3626 31.0139 29.8746 31.5016 29.2729 31.5016C28.6709 31.5016 28.1823 31.0137 28.1823 30.4119C28.1823 29.8099 28.671 29.3222 29.2729 29.3222Z" fill="#FF6370"/>
<path fill-rule="evenodd" clip-rule="evenodd" d="M18.5371 32.8213V35.3576C18.5371 35.7134 18.8318 35.9997 19.1978 35.9997H20.2378C20.6041 35.9997 20.8986 35.7134 20.8986 35.3576V32.8213H18.5371ZM27.9558 32.8213V35.3576C27.9558 35.7134 28.2504 35.9997 28.6165 35.9997H29.6556C30.0218 35.9997 30.3172 35.7134 30.3172 35.3576V32.8213H27.9558Z" fill="#FF6370"/>
<path fill-rule="evenodd" clip-rule="evenodd" d="M29.5324 26.0911L30.5214 27.4592L30.8172 27.4143C31.2233 27.3528 31.5482 26.9936 31.4467 26.6314C31.2346 25.8751 30.1857 26.091 29.5322 26.091L29.5324 26.0911Z" fill="#FF6370"/>
<path fill-rule="evenodd" clip-rule="evenodd" d="M19.145 26.0911L18.1559 27.4592L17.8602 27.4143C17.4541 27.3528 17.1291 26.9936 17.2307 26.6314C17.4427 25.8751 18.4916 26.091 19.1451 26.091L19.145 26.0911Z" fill="#FF6370"/>
</svg>
